<svg width="46" height="46" viewBox="0 0 46 46" fill="none" xmlns="http://www.w3.org/2000/svg">
<g clip-path="url(#clip0)">
<path d="M40.5957 29.2184L45.5263 31.6851C46.1588 32.0014 46.1588 32.9041 45.5263 33.2204L23.7683 44.1023C23.5299 44.2212 23.2671 44.2831 23.0007 44.2831C22.7343 44.2831 22.4715 44.2212 22.2331 44.1023L0.475082 33.2204C0.332947 33.1487 0.213493 33.039 0.130032 32.9035C0.0465697 32.768 0.00237691 32.6119 0.00237691 32.4528C0.00237691 32.2936 0.0465697 32.1375 0.130032 32.002C0.213493 31.8665 0.332947 31.7568 0.475082 31.6851L5.40858 29.2184L20.695 36.863C22.1468 37.5875 23.8575 37.5875 25.3065 36.863L40.5928 29.2155L40.5957 29.2184ZM22.2331 0.180883C22.4715 0.0619235 22.7343 0 23.0007 0C23.2671 0 23.5299 0.0619235 23.7683 0.180883L45.5263 11.0599C45.6684 11.132 45.7876 11.242 45.871 11.3778C45.9543 11.5135 45.9984 11.6697 45.9984 11.8289C45.9984 11.9882 45.9543 12.1444 45.871 12.2801C45.7876 12.4159 45.6684 12.5259 45.5263 12.598L23.7683 23.4741C23.5299 23.5931 23.2671 23.655 23.0007 23.655C22.7343 23.655 22.4715 23.5931 22.2331 23.4741L0.475082 12.598C0.332193 12.5267 0.212009 12.4169 0.128008 12.2811C0.0440072 12.1452 -0.000488281 11.9887 -0.000488281 11.8289C-0.000488281 11.6692 0.0440072 11.5127 0.128008 11.3768C0.212009 11.241 0.332193 11.1312 0.475082 11.0599L22.2331 0.180883Z" fill="white"/>
<path d="M40.5948 18.9062L45.5254 21.373C46.1579 21.6892 46.1579 22.592 45.5254 22.9082L23.7674 33.7872C23.529 33.9062 23.2662 33.9681 22.9998 33.9681C22.7334 33.9681 22.4706 33.9062 22.2322 33.7872L0.47417 22.9082C0.332034 22.8366 0.212581 22.7269 0.12912 22.5914C0.0456576 22.4558 0.00146484 22.2998 0.00146484 22.1406C0.00146484 21.9815 0.0456576 21.8254 0.12912 21.6899C0.212581 21.5543 0.332034 21.4446 0.47417 21.373L5.40767 18.9062L20.694 26.5509C22.1459 27.2754 23.8565 27.2754 25.3055 26.5509L40.5919 18.9062H40.5948Z" fill="white"/>
</g>
<defs>
<clipPath id="clip0">
<rect width="46" height="46" fill="white"/>
</clipPath>
</defs>
</svg>
