<svg width="18" height="16" viewBox="0 0 18 16" fill="none" xmlns="http://www.w3.org/2000/svg">
<path d="M17.5 7.93926C17.5 12.0048 13.8651 15.3785 9.28027 15.3785C4.69549 15.3785 1.06055 12.0048 1.06055 7.93926C1.06055 3.87376 4.69549 0.5 9.28027 0.5C13.8651 0.5 17.5 3.87376 17.5 7.93926Z" stroke="#FF0000"/>
<path d="M9.25688 3.57975C8.65321 3.57975 8.17027 3.99504 8.17027 4.52025C8.17027 5.05768 8.65321 5.47296 9.25688 5.47296C9.84714 5.47296 10.3301 5.05768 10.3301 4.52025C10.3301 3.99504 9.84714 3.57975 9.25688 3.57975ZM9.9008 6.29132L8.58613 6.29132L8.33125 12.3984L10.1423 12.3984L9.9008 6.29132Z" fill="#FF0000"/>
</svg>
