<svg width="106" height="18" viewBox="0 0 106 18" fill="none" xmlns="http://www.w3.org/2000/svg">
<path d="M6.44799 16.6436C8.80917 16.6436 10.5842 15.4379 11.5053 13.2442L9.71345 12.3734C8.95988 14.0982 7.97187 14.8183 6.49822 14.8183C5.44323 14.8183 4.57243 14.4164 3.88585 13.6126C3.19926 12.8088 2.86434 11.804 2.86434 10.5816C2.86434 9.39259 3.19926 8.38783 3.88585 7.58402C4.57243 6.78021 5.42648 6.37831 6.46473 6.37831C7.82116 6.37831 8.82592 7.0649 9.56274 8.48831L11.3378 7.53378C10.4838 5.608 8.72544 4.51951 6.46473 4.51951C4.80688 4.51951 3.43371 5.10562 2.37871 6.26109C1.32371 7.41656 0.787842 8.85672 0.787842 10.5983C0.787842 12.3566 1.30697 13.8135 2.34522 14.9523C3.40022 16.0742 4.75664 16.6436 6.44799 16.6436Z" fill="white"/>
<path d="M12.6904 12.2227C12.6904 13.5288 13.0923 14.6006 13.8962 15.4211C14.7 16.2417 15.7382 16.6436 17.0277 16.6436C18.3171 16.6436 19.3553 16.2417 20.1592 15.4211C20.9797 14.6006 21.3816 13.5288 21.3816 12.2227C21.3816 10.9165 20.9797 9.86148 20.1592 9.04092C19.3553 8.22037 18.3171 7.80172 17.0277 7.80172C15.7382 7.80172 14.7 8.22037 13.8962 9.04092C13.0923 9.86148 12.6904 10.9165 12.6904 12.2227ZM19.4223 12.2227C19.4223 13.8805 18.4511 15.0025 17.0277 15.0025C15.621 15.0025 14.6497 13.847 14.6497 12.2227C14.6497 10.5648 15.6042 9.44283 17.0277 9.44283C18.4511 9.44283 19.4223 10.5648 19.4223 12.2227Z" fill="white"/>
<path d="M30.6679 12.2227C30.6679 10.5313 31.3712 9.49306 32.577 9.49306C33.5985 9.49306 34.1008 10.1294 34.1008 11.4858V16.4426H36.0266V11.0504C36.0266 10.1294 35.7587 9.3591 35.2228 8.7395C34.7037 8.11989 34.0004 7.80172 33.1128 7.80172C31.8569 7.80172 30.9191 8.40458 30.3665 9.56005C29.9143 8.43807 28.9598 7.80172 27.7374 7.80172C26.6154 7.80172 25.7446 8.27061 25.192 9.20838V8.00267H23.3499V16.4426H25.2924V12.2227C25.2924 10.5481 26.0125 9.49306 27.2015 9.49306C28.223 9.49306 28.7254 10.1294 28.7254 11.4858V16.4426H30.6679V12.2227Z" fill="white"/>
<path d="M45.8113 12.2227C45.8113 10.5313 46.5146 9.49306 47.7203 9.49306C48.7418 9.49306 49.2442 10.1294 49.2442 11.4858V16.4426H51.17V11.0504C51.17 10.1294 50.902 9.3591 50.3662 8.7395C49.847 8.11989 49.1437 7.80172 48.2562 7.80172C47.0002 7.80172 46.0624 8.40458 45.5098 9.56005C45.0577 8.43807 44.1032 7.80172 42.8807 7.80172C41.7587 7.80172 40.8879 8.27061 40.3353 9.20838V8.00267H38.4933V16.4426H40.4358V12.2227C40.4358 10.5481 41.1559 9.49306 42.3448 9.49306C43.3663 9.49306 43.8687 10.1294 43.8687 11.4858V16.4426H45.8113V12.2227Z" fill="white"/>
<path d="M59.9498 13.8973C59.9498 12.6413 59.1963 11.8877 57.5049 11.5026L56.115 11.1844C55.3614 11.0002 55.0935 10.749 55.0935 10.2634C55.0935 9.71076 55.5624 9.3591 56.4164 9.3591C57.2202 9.3591 58.0073 9.67727 58.8613 10.3973L59.8494 8.97394C58.7776 8.17013 57.6891 7.80172 56.4332 7.80172C55.4787 7.80172 54.7251 8.05291 54.139 8.53854C53.5696 9.02418 53.2849 9.61029 53.2849 10.3304C53.2849 11.6198 54.0887 12.4739 55.6796 12.8255L56.8853 13.0935C57.8064 13.2944 58.1078 13.5623 58.1078 14.048C58.1078 14.7011 57.5552 15.0862 56.5002 15.0862C55.5791 15.0862 54.5744 14.6508 53.8208 14.0312L52.8663 15.4044C53.7538 16.158 55.1605 16.6436 56.6341 16.6436C58.6604 16.6436 59.9498 15.5216 59.9498 13.8973Z" fill="white"/>
<path d="M74.1469 12.2227C74.1469 13.5288 74.5488 14.6006 75.3526 15.4211C76.1564 16.2417 77.1947 16.6436 78.4841 16.6436C79.7735 16.6436 80.8118 16.2417 81.6156 15.4211C82.4362 14.6006 82.8381 13.5288 82.8381 12.2227C82.8381 10.9165 82.4362 9.86148 81.6156 9.04092C80.8118 8.22037 79.7735 7.80172 78.4841 7.80172C77.1947 7.80172 76.1564 8.22037 75.3526 9.04092C74.5488 9.86148 74.1469 10.9165 74.1469 12.2227ZM80.8788 12.2227C80.8788 13.8805 79.9075 15.0025 78.4841 15.0025C77.0774 15.0025 76.1062 13.847 76.1062 12.2227C76.1062 10.5648 77.0607 9.44283 78.4841 9.44283C79.9075 9.44283 80.8788 10.5648 80.8788 12.2227Z" fill="white"/>
<path d="M86.7489 16.4426V12.8925C86.7489 10.8662 87.6197 9.69402 89.0933 9.69402C89.2775 9.69402 89.4283 9.69402 89.7129 9.74426L89.8804 8.00267C89.6627 7.95243 89.3613 7.93569 89.0933 7.93569C88.0049 7.93569 87.1341 8.57204 86.6484 9.72751V8.00267H84.8064V16.4426H86.7489Z" fill="white"/>
<path d="M91.8673 13.9475C91.8673 15.7058 92.8386 16.6436 94.7643 16.6436C95.5681 16.6436 96.3217 16.4092 96.9246 15.957L96.3552 14.5336C95.7523 14.8853 95.4342 14.9857 95.0155 14.9857C94.1615 14.9857 93.7931 14.6341 93.7931 13.6963V9.5768H96.2715V8.00267H93.7931V4.72046L91.8673 5.37355V8.00267H90.4606V9.5768H91.8673V13.9475Z" fill="white"/>
<path d="M106 11.0504C106 10.1127 105.715 9.34235 105.146 8.72275C104.593 8.10315 103.84 7.80172 102.902 7.80172C101.763 7.80172 100.892 8.25386 100.29 9.1414V4.21808H98.3471V16.4426H100.29V12.2394C100.29 10.5481 101.06 9.49306 102.383 9.49306C103.522 9.49306 104.074 10.0959 104.074 11.4858V16.4426H106V11.0504Z" fill="white"/>
<path d="M64.723 8.4317C62.8623 8.55294 62.0971 12.1194 61.947 13.8874C62.3972 12.5487 63.6426 9.82594 65.0231 9.64408C66.4036 9.46223 67.399 14.7209 67.7241 17.373C67.424 13.8571 73.076 4.71879 75.902 0.627014C72.8259 1.99094 69.2496 8.33067 67.574 11.69C67.399 10.5534 66.5837 8.31046 64.723 8.4317Z" fill="#589A47"/>
</svg>
